<?xml version="1.0" encoding="UTF-8" standalone="no"?><!DOCTYPE svg PUBLIC "-//W3C//DTD SVG 1.1//EN" "http://www.w3.org/Graphics/SVG/1.1/DTD/svg11.dtd"><!-- Generated by graphviz version 2.40.1 (20161225.0304)
 --><!-- Title: STIXGenCoT Pages: 1 --><svg xmlns="http://www.w3.org/2000/svg" xmlns:xlink="http://www.w3.org/1999/xlink" width="779pt" height="121pt" viewBox="0.00 0.00 779.34 121.00">
<g id="graph0" class="graph" transform="scale(1 1) rotate(0) translate(4 117)">
<title>STIXGenCoT</title>
<polygon fill="#ffffff" stroke="transparent" points="-4,4 -4,-117 775.3424,-117 775.3424,4 -4,4"/>
<g id="clust1" class="cluster">
<title>cluster_forward</title>
<polygon fill="none" stroke="#000000" stroke-dasharray="5,2" points="8,-8 8,-105 678.4518,-105 678.4518,-8 8,-8"/>
<text text-anchor="middle" x="343.2259" y="-88.4" font-family="Times,serif" font-size="14.00" fill="#000000">forward method</text>
</g>
<!-- STIXGenCoT -->
<g id="node1" class="node">
<title>STIXGenCoT</title>
<polygon fill="#add8e6" stroke="#000000" points="771.3424,-52 717.3424,-52 717.3424,-16 771.3424,-16 771.3424,-52"/>
<text text-anchor="middle" x="744.3424" y="-29.8" font-family="Times,serif" font-size="14.00" fill="#000000">LLM</text>
</g>
<!-- Question -->
<g id="node2" class="node">
<title>Question</title>
<polygon fill="#add8e6" stroke="#000000" points="79.6621,-52 15.7783,-52 15.7783,-16 79.6621,-16 79.6621,-52"/>
<text text-anchor="middle" x="47.7202" y="-29.8" font-family="Times,serif" font-size="14.00" fill="#000000">question</text>
</g>
<!-- Retriever -->
<g id="node3" class="node">
<title>Retriever</title>
<polygon fill="#add8e6" stroke="#000000" points="241.6163,-52 154.3817,-52 154.3817,-16 241.6163,-16 241.6163,-52"/>
<text text-anchor="middle" x="197.999" y="-29.8" font-family="Times,serif" font-size="14.00" fill="#000000">self.retriever</text>
</g>
<!-- Question&#45;&gt;Retriever -->
<g id="edge1" class="edge">
<title>Question-&gt;Retriever</title>
<path fill="none" stroke="#000000" d="M79.5905,-34C98.3339,-34 122.5264,-34 144.1535,-34"/>
<polygon fill="#000000" stroke="#000000" points="144.204,-37.5001 154.204,-34 144.204,-30.5001 144.204,-37.5001"/>
</g>
<!-- Predictor -->
<g id="node5" class="node">
<title>Predictor</title>
<polygon fill="#add8e6" stroke="#000000" points="539.1313,-52 448.6467,-52 448.6467,-16 539.1313,-16 539.1313,-52"/>
<text text-anchor="middle" x="493.889" y="-29.8" font-family="Times,serif" font-size="14.00" fill="#000000">self.predictor</text>
</g>
<!-- Question&#45;&gt;Predictor -->
<g id="edge5" class="edge">
<title>Question-&gt;Predictor</title>
<path fill="none" stroke="#000000" d="M79.5481,-44.2567C100.5597,-50.4774 128.8375,-57.8115 154.4404,-61 251.1721,-73.0467 276.8841,-71.7543 373.768,-61 395.213,-58.6196 418.4229,-53.9183 438.6714,-49.0966"/>
<polygon fill="#000000" stroke="#000000" points="439.7764,-52.4296 448.658,-46.653 438.1127,-45.6301 439.7764,-52.4296"/>
</g>
<!-- Context -->
<g id="node4" class="node">
<title>Context</title>
<polygon fill="#add8e6" stroke="#000000" points="373.8736,-52 316.452,-52 316.452,-16 373.8736,-16 373.8736,-52"/>
<text text-anchor="middle" x="345.1628" y="-29.8" font-family="Times,serif" font-size="14.00" fill="#000000">context</text>
</g>
<!-- Retriever&#45;&gt;Context -->
<g id="edge2" class="edge">
<title>Retriever-&gt;Context</title>
<path fill="none" stroke="#000000" d="M241.7545,-34C262.1511,-34 286.2282,-34 306.0156,-34"/>
<polygon fill="#000000" stroke="#000000" points="306.2225,-37.5001 316.2224,-34 306.2224,-30.5001 306.2225,-37.5001"/>
</g>
<!-- Context&#45;&gt;Predictor -->
<g id="edge3" class="edge">
<title>Context-&gt;Predictor</title>
<path fill="none" stroke="#000000" d="M373.8387,-34C392.129,-34 416.4399,-34 438.3995,-34"/>
<polygon fill="#000000" stroke="#000000" points="438.6226,-37.5001 448.6226,-34 438.6225,-30.5001 438.6226,-37.5001"/>
</g>
<!-- Results -->
<g id="node6" class="node">
<title>Results</title>
<polygon fill="#add8e6" stroke="#000000" points="670.6744,-52 613.7874,-52 613.7874,-16 670.6744,-16 670.6744,-52"/>
<text text-anchor="middle" x="642.2309" y="-29.8" font-family="Times,serif" font-size="14.00" fill="#000000">prompt</text>
</g>
<!-- Predictor&#45;&gt;Results -->
<g id="edge4" class="edge">
<title>Predictor-&gt;Results</title>
<path fill="none" stroke="#000000" d="M539.2025,-34C559.8586,-34 584.0523,-34 603.8025,-34"/>
<polygon fill="#000000" stroke="#000000" points="603.9743,-37.5001 613.9743,-34 603.9743,-30.5001 603.9743,-37.5001"/>
</g>
<!-- Results&#45;&gt;STIXGenCoT -->
<g id="edge6" class="edge">
<title>Results-&gt;STIXGenCoT</title>
<path fill="none" stroke="#000000" d="M670.6746,-34C681.9025,-34 694.9588,-34 706.934,-34"/>
<polygon fill="#000000" stroke="#000000" points="707.1063,-37.5001 717.1062,-34 707.1062,-30.5001 707.1063,-37.5001"/>
<text text-anchor="middle" x="693.8971" y="-38.2" font-family="Times,serif" font-size="14.00" fill="#000000">to</text>
</g>
</g>
</svg>