<?xml version="1.0" encoding="UTF-8" standalone="no"?><!DOCTYPE svg PUBLIC "-//W3C//DTD SVG 1.1//EN" "http://www.w3.org/Graphics/SVG/1.1/DTD/svg11.dtd"><!-- Generated by graphviz version 2.40.1 (20161225.0304)
 --><!-- Title: G Pages: 1 --><svg xmlns="http://www.w3.org/2000/svg" xmlns:xlink="http://www.w3.org/1999/xlink" width="2500pt" height="194pt" viewBox="0.00 0.00 2500.29 194.40">
<g id="graph0" class="graph" transform="scale(1 1) rotate(0) translate(4 190.4)">
<title>G</title>
<polygon fill="#ffffff" stroke="transparent" points="-4,4 -4,-190.4 2496.2943,-190.4 2496.2943,4 -4,4"/>
<!-- Email -->
<g id="node1" class="node">
<title>Email</title>
<polygon fill="none" stroke="#000000" points="613.4049,-186.6014 353.9079,-186.6014 353.9079,-127.7986 613.4049,-127.7986 613.4049,-186.6014"/>
<text text-anchor="middle" x="483.6564" y="-169.8" font-family="Times,serif" font-size="14.00" fill="#000000">Email</text>
<text text-anchor="middle" x="483.6564" y="-153" font-family="Times,serif" font-size="14.00" fill="#000000">sender: support@banksecure.com</text>
<text text-anchor="middle" x="483.6564" y="-136.2" font-family="Times,serif" font-size="14.00" fill="#000000">subject: Urgent: Verify Your Account Now</text>
</g>
<!-- Headers -->
<g id="node2" class="node">
<title>Headers</title>
<polygon fill="none" stroke="#000000" points="165.4695,-83.7003 -.1567,-83.7003 -.1567,-8.2997 165.4695,-8.2997 165.4695,-83.7003"/>
<text text-anchor="middle" x="82.6564" y="-67" font-family="Times,serif" font-size="14.00" fill="#000000">Headers</text>
<text text-anchor="middle" x="82.6564" y="-50.2" font-family="Times,serif" font-size="14.00" fill="#000000">IP_address: 192.168.10.45</text>
<text text-anchor="middle" x="82.6564" y="-33.4" font-family="Times,serif" font-size="14.00" fill="#000000">domain: banksecure.com</text>
<text text-anchor="middle" x="82.6564" y="-16.6" font-family="Times,serif" font-size="14.00" fill="#000000">registered_to: Russia</text>
</g>
<!-- Email&#45;&gt;Headers -->
<g id="edge1" class="edge">
<title>Email-&gt;Headers</title>
<path fill="none" stroke="#000000" d="M353.775,-137.6786C297.4837,-127.2351 231.3854,-112.2695 173.6564,-92 169.8657,-90.669 166.0318,-89.2125 162.1924,-87.6631"/>
<polygon fill="#000000" stroke="#000000" points="163.2322,-84.3031 152.6582,-83.6394 160.5104,-90.7523 163.2322,-84.3031"/>
</g>
<!-- Link_0 -->
<g id="node3" class="node">
<title>Link_0</title>
<polygon fill="none" stroke="#000000" points="460.4245,-75.4014 182.8883,-75.4014 182.8883,-16.5986 460.4245,-16.5986 460.4245,-75.4014"/>
<text text-anchor="middle" x="321.6564" y="-58.6" font-family="Times,serif" font-size="14.00" fill="#000000">Link</text>
<text text-anchor="middle" x="321.6564" y="-41.8" font-family="Times,serif" font-size="14.00" fill="#000000">URL: http://banksecure-verification.com/login</text>
<text text-anchor="middle" x="321.6564" y="-25" font-family="Times,serif" font-size="14.00" fill="#000000">timestamp: 10:15 AM</text>
</g>
<!-- Email&#45;&gt;Link_0 -->
<g id="edge2" class="edge">
<title>Email-&gt;Link_0</title>
<path fill="none" stroke="#000000" d="M441.0928,-127.9835C420.0619,-113.5475 394.5307,-96.0223 372.4805,-80.8867"/>
<polygon fill="#000000" stroke="#000000" points="374.442,-77.9879 364.2167,-75.2142 370.4805,-83.7591 374.442,-77.9879"/>
</g>
<!-- Link_1 -->
<g id="node4" class="node">
<title>Link_1</title>
<polygon fill="none" stroke="#000000" points="811.3839,-75.4014 477.9289,-75.4014 477.9289,-16.5986 811.3839,-16.5986 811.3839,-75.4014"/>
<text text-anchor="middle" x="644.6564" y="-58.6" font-family="Times,serif" font-size="14.00" fill="#000000">Link</text>
<text text-anchor="middle" x="644.6564" y="-41.8" font-family="Times,serif" font-size="14.00" fill="#000000">URL: http://banksecure-verification.com/account-details</text>
<text text-anchor="middle" x="644.6564" y="-25" font-family="Times,serif" font-size="14.00" fill="#000000">timestamp: 10:17 AM</text>
</g>
<!-- Email&#45;&gt;Link_1 -->
<g id="edge3" class="edge">
<title>Email-&gt;Link_1</title>
<path fill="none" stroke="#000000" d="M525.9573,-127.9835C546.7663,-113.6111 572.0085,-96.1767 593.8562,-81.0869"/>
<polygon fill="#000000" stroke="#000000" points="596.1197,-83.7772 602.3588,-75.2142 592.1416,-78.0175 596.1197,-83.7772"/>
</g>
<!-- Attachment_0 -->
<g id="node5" class="node">
<title>Attachment_0</title>
<polygon fill="none" stroke="#000000" points="1132.4912,-92 828.8216,-92 828.8216,0 1132.4912,0 1132.4912,-92"/>
<text text-anchor="middle" x="980.6564" y="-75.4" font-family="Times,serif" font-size="14.00" fill="#000000">Attachment</text>
<text text-anchor="middle" x="980.6564" y="-58.6" font-family="Times,serif" font-size="14.00" fill="#000000">file_name: AccountDetails.exe</text>
<text text-anchor="middle" x="980.6564" y="-41.8" font-family="Times,serif" font-size="14.00" fill="#000000">created_at: 10:20 AM</text>
<text text-anchor="middle" x="980.6564" y="-25" font-family="Times,serif" font-size="14.00" fill="#000000">MD5_hash: e99a18c428cb38d5f260853678922e03</text>
<text text-anchor="middle" x="980.6564" y="-8.2" font-family="Times,serif" font-size="14.00" fill="#000000">status: known_malware</text>
</g>
<!-- Email&#45;&gt;Attachment_0 -->
<g id="edge4" class="edge">
<title>Email-&gt;Attachment_0</title>
<path fill="none" stroke="#000000" d="M613.4582,-134.872C673.6142,-123.8466 746.1735,-109.5917 818.9279,-92.37"/>
<polygon fill="#000000" stroke="#000000" points="819.8125,-95.7572 828.7275,-90.0324 818.1883,-88.9483 819.8125,-95.7572"/>
</g>
<!-- Actions -->
<g id="node6" class="node">
<title>Actions</title>
<polygon fill="none" stroke="#000000" points="1820.6852,-175.2 1722.6276,-175.2 1722.6276,-139.2 1820.6852,-139.2 1820.6852,-175.2"/>
<text text-anchor="middle" x="1771.6564" y="-153" font-family="Times,serif" font-size="14.00" fill="#000000">Actions Taken</text>
</g>
<!-- Action_0 -->
<g id="node7" class="node">
<title>Action_0</title>
<polygon fill="none" stroke="#000000" points="1347.0201,-64 1150.2927,-64 1150.2927,-28 1347.0201,-28 1347.0201,-64"/>
<text text-anchor="middle" x="1248.6564" y="-41.8" font-family="Times,serif" font-size="14.00" fill="#000000">Clear browser history and cache</text>
</g>
<!-- Actions&#45;&gt;Action_0 -->
<g id="edge5" class="edge">
<title>Actions-&gt;Action_0</title>
<path fill="none" stroke="#000000" d="M1722.4388,-153.5006C1643.6934,-146.6934 1485.077,-129.3195 1355.6564,-92 1334.7144,-85.9612 1312.4383,-76.8526 1293.6643,-68.3299"/>
<polygon fill="#000000" stroke="#000000" points="1295.0174,-65.0995 1284.4719,-64.078 1292.0786,-71.4528 1295.0174,-65.0995"/>
</g>
<!-- Action_1 -->
<g id="node8" class="node">
<title>Action_1</title>
<polygon fill="none" stroke="#000000" points="1508.3003,-64 1365.0125,-64 1365.0125,-28 1508.3003,-28 1508.3003,-64"/>
<text text-anchor="middle" x="1436.6564" y="-41.8" font-family="Times,serif" font-size="14.00" fill="#000000">Run full antivirus scan</text>
</g>
<!-- Actions&#45;&gt;Action_1 -->
<g id="edge6" class="edge">
<title>Actions-&gt;Action_1</title>
<path fill="none" stroke="#000000" d="M1722.4666,-148.7423C1670.1693,-138.8108 1585.6568,-120.0472 1516.6564,-92 1501.7032,-85.9218 1486.1289,-77.5031 1472.7385,-69.5275"/>
<polygon fill="#000000" stroke="#000000" points="1474.2122,-66.3269 1463.8516,-64.111 1470.569,-72.3042 1474.2122,-66.3269"/>
</g>
<!-- Action_2 -->
<g id="node9" class="node">
<title>Action_2</title>
<polygon fill="none" stroke="#000000" points="1787.473,-64 1525.8398,-64 1525.8398,-28 1787.473,-28 1787.473,-64"/>
<text text-anchor="middle" x="1656.6564" y="-41.8" font-family="Times,serif" font-size="14.00" fill="#000000">Provide browser history entries and cookies</text>
</g>
<!-- Actions&#45;&gt;Action_2 -->
<g id="edge7" class="edge">
<title>Actions-&gt;Action_2</title>
<path fill="none" stroke="#000000" d="M1752.9237,-139.0863C1733.8777,-120.6697 1704.2098,-91.982 1682.8426,-71.3209"/>
<polygon fill="#000000" stroke="#000000" points="1685.0029,-68.5412 1675.3811,-64.1059 1680.137,-73.5734 1685.0029,-68.5412"/>
</g>
<!-- Action_3 -->
<g id="node10" class="node">
<title>Action_3</title>
<polygon fill="none" stroke="#000000" points="1967.8347,-64 1805.4781,-64 1805.4781,-28 1967.8347,-28 1967.8347,-64"/>
<text text-anchor="middle" x="1886.6564" y="-41.8" font-family="Times,serif" font-size="14.00" fill="#000000">Quarantine suspicious file</text>
</g>
<!-- Actions&#45;&gt;Action_3 -->
<g id="edge8" class="edge">
<title>Actions-&gt;Action_3</title>
<path fill="none" stroke="#000000" d="M1790.3891,-139.0863C1809.4351,-120.6697 1839.103,-91.982 1860.4702,-71.3209"/>
<polygon fill="#000000" stroke="#000000" points="1863.1758,-73.5734 1867.9317,-64.1059 1858.3099,-68.5412 1863.1758,-73.5734"/>
</g>
<!-- Action_4 -->
<g id="node11" class="node">
<title>Action_4</title>
<polygon fill="none" stroke="#000000" points="2157.1649,-64 1986.1479,-64 1986.1479,-28 2157.1649,-28 2157.1649,-64"/>
<text text-anchor="middle" x="2071.6564" y="-41.8" font-family="Times,serif" font-size="14.00" fill="#000000">Check network connections</text>
</g>
<!-- Actions&#45;&gt;Action_4 -->
<g id="edge9" class="edge">
<title>Actions-&gt;Action_4</title>
<path fill="none" stroke="#000000" d="M1820.8076,-143.7144C1862.7732,-131.6934 1924.447,-112.8189 1976.6564,-92 1993.8733,-85.1346 2012.3158,-76.5132 2028.3275,-68.5952"/>
<polygon fill="#000000" stroke="#000000" points="2030.0692,-71.6375 2037.4465,-64.0331 2026.9372,-65.3773 2030.0692,-71.6375"/>
</g>
<!-- Action_5 -->
<g id="node12" class="node">
<title>Action_5</title>
<polygon fill="none" stroke="#000000" points="2492.4323,-64 2174.8805,-64 2174.8805,-28 2492.4323,-28 2492.4323,-64"/>
<text text-anchor="middle" x="2333.6564" y="-41.8" font-family="Times,serif" font-size="14.00" fill="#000000">Reset passwords and enable two-factor authentication</text>
</g>
<!-- Actions&#45;&gt;Action_5 -->
<g id="edge10" class="edge">
<title>Actions-&gt;Action_5</title>
<path fill="none" stroke="#000000" d="M1820.9286,-150.7657C1895.9867,-140.5822 2043.2728,-119.0973 2166.6564,-92 2198.9837,-84.9003 2234.3812,-75.4031 2264.2341,-66.882"/>
<polygon fill="#000000" stroke="#000000" points="2265.4904,-70.1627 2274.1331,-64.0346 2263.5552,-63.4354 2265.4904,-70.1627"/>
</g>
</g>
</svg>