<?xml version="1.0" encoding="UTF-8" standalone="no"?><!DOCTYPE svg PUBLIC "-//W3C//DTD SVG 1.1//EN" "http://www.w3.org/Graphics/SVG/1.1/DTD/svg11.dtd"><!-- Generated by graphviz version 2.40.1 (20161225.0304)
 --><!-- Title: PhishingIncident Pages: 1 --><svg xmlns="http://www.w3.org/2000/svg" xmlns:xlink="http://www.w3.org/1999/xlink" width="637pt" height="488pt" viewBox="0.00 0.00 636.73 488.00">
<g id="graph0" class="graph" transform="scale(1 1) rotate(0) translate(4 484)">
<title>PhishingIncident</title>
<polygon fill="#ffffff" stroke="transparent" points="-4,4 -4,-484 632.7262,-484 632.7262,4 -4,4"/>
<!-- Email -->
<g id="node1" class="node">
<title>Email</title>
<ellipse fill="none" stroke="#000000" cx="226.6272" cy="-462" rx="34.2045" ry="18"/>
<text text-anchor="middle" x="226.6272" y="-457.8" font-family="Times,serif" font-size="14.00" fill="#000000">Email</text>
</g>
<!-- EmailDomain -->
<g id="node2" class="node">
<title>EmailDomain</title>
<ellipse fill="none" stroke="#000000" cx="67.6272" cy="-373.2" rx="67.7546" ry="18"/>
<text text-anchor="middle" x="67.6272" y="-369" font-family="Times,serif" font-size="14.00" fill="#000000">Email Domain</text>
</g>
<!-- Email&#45;&gt;EmailDomain -->
<g id="edge1" class="edge">
<title>Email-&gt;EmailDomain</title>
<path fill="none" stroke="#000000" d="M203.1662,-448.8973C177.5669,-434.6003 136.1949,-411.4944 105.8844,-394.5663"/>
<polygon fill="#000000" stroke="#000000" points="107.2999,-391.348 96.8626,-389.5277 103.8866,-397.4595 107.2999,-391.348"/>
<text text-anchor="middle" x="175.2331" y="-413.4" font-family="Times,serif" font-size="14.00" fill="#000000">from</text>
</g>
<!-- SuspiciousLink -->
<g id="node3" class="node">
<title>SuspiciousLink</title>
<ellipse fill="none" stroke="#000000" cx="226.6272" cy="-373.2" rx="73.5764" ry="18"/>
<text text-anchor="middle" x="226.6272" y="-369" font-family="Times,serif" font-size="14.00" fill="#000000">Suspicious Link</text>
</g>
<!-- Email&#45;&gt;SuspiciousLink -->
<g id="edge2" class="edge">
<title>Email-&gt;SuspiciousLink</title>
<path fill="none" stroke="#000000" d="M226.6272,-443.6006C226.6272,-431.4949 226.6272,-415.4076 226.6272,-401.6674"/>
<polygon fill="#000000" stroke="#000000" points="230.1273,-401.272 226.6272,-391.272 223.1273,-401.2721 230.1273,-401.272"/>
<text text-anchor="middle" x="249.9547" y="-413.4" font-family="Times,serif" font-size="14.00" fill="#000000">contains</text>
</g>
<!-- ForwardedEmail -->
<g id="node8" class="node">
<title>ForwardedEmail</title>
<ellipse fill="none" stroke="#000000" cx="396.6272" cy="-373.2" rx="78.1892" ry="18"/>
<text text-anchor="middle" x="396.6272" y="-369" font-family="Times,serif" font-size="14.00" fill="#000000">Forwarded Email</text>
</g>
<!-- Email&#45;&gt;ForwardedEmail -->
<g id="edge7" class="edge">
<title>Email-&gt;ForwardedEmail</title>
<path fill="none" stroke="#000000" d="M250.984,-449.2771C278.4258,-434.9428 323.4634,-411.4173 356.2001,-394.3172"/>
<polygon fill="#000000" stroke="#000000" points="357.8394,-397.4097 365.0825,-389.6775 354.5984,-391.2052 357.8394,-397.4097"/>
<text text-anchor="middle" x="385.5452" y="-413.4" font-family="Times,serif" font-size="14.00" fill="#000000">forwarded by Taylor</text>
</g>
<!-- LoginPage -->
<g id="node4" class="node">
<title>LoginPage</title>
<ellipse fill="none" stroke="#000000" cx="226.6272" cy="-284.4" rx="55.0797" ry="18"/>
<text text-anchor="middle" x="226.6272" y="-280.2" font-family="Times,serif" font-size="14.00" fill="#000000">Login Page</text>
</g>
<!-- SuspiciousLink&#45;&gt;LoginPage -->
<g id="edge3" class="edge">
<title>SuspiciousLink-&gt;LoginPage</title>
<path fill="none" stroke="#000000" d="M226.6272,-354.8006C226.6272,-342.6949 226.6272,-326.6076 226.6272,-312.8674"/>
<polygon fill="#000000" stroke="#000000" points="230.1273,-312.472 226.6272,-302.472 223.1273,-312.4721 230.1273,-312.472"/>
<text text-anchor="middle" x="257.9179" y="-324.6" font-family="Times,serif" font-size="14.00" fill="#000000">redirects to</text>
</g>
<!-- Credentials -->
<g id="node5" class="node">
<title>Credentials</title>
<ellipse fill="none" stroke="#000000" cx="226.6272" cy="-195.6" rx="55.0304" ry="18"/>
<text text-anchor="middle" x="226.6272" y="-191.4" font-family="Times,serif" font-size="14.00" fill="#000000">Credentials</text>
</g>
<!-- LoginPage&#45;&gt;Credentials -->
<g id="edge4" class="edge">
<title>LoginPage-&gt;Credentials</title>
<path fill="none" stroke="#000000" d="M226.6272,-266.0006C226.6272,-253.8949 226.6272,-237.8076 226.6272,-224.0674"/>
<polygon fill="#000000" stroke="#000000" points="230.1273,-223.672 226.6272,-213.672 223.1273,-223.6721 230.1273,-223.672"/>
<text text-anchor="middle" x="249.562" y="-235.8" font-family="Times,serif" font-size="14.00" fill="#000000">requests</text>
</g>
<!-- Alert -->
<g id="node6" class="node">
<title>Alert</title>
<ellipse fill="none" stroke="#000000" cx="226.6272" cy="-106.8" rx="65.4435" ry="18"/>
<text text-anchor="middle" x="226.6272" y="-102.6" font-family="Times,serif" font-size="14.00" fill="#000000">Security Alert</text>
</g>
<!-- Credentials&#45;&gt;Alert -->
<g id="edge5" class="edge">
<title>Credentials-&gt;Alert</title>
<path fill="none" stroke="#000000" d="M226.6272,-177.2006C226.6272,-165.0949 226.6272,-149.0076 226.6272,-135.2674"/>
<polygon fill="#000000" stroke="#000000" points="230.1273,-134.872 226.6272,-124.872 223.1273,-134.8721 230.1273,-134.872"/>
<text text-anchor="middle" x="251.893" y="-147" font-family="Times,serif" font-size="14.00" fill="#000000">triggered</text>
</g>
<!-- EmployeeAccount -->
<g id="node7" class="node">
<title>EmployeeAccount</title>
<ellipse fill="none" stroke="#000000" cx="226.6272" cy="-18" rx="85.1378" ry="18"/>
<text text-anchor="middle" x="226.6272" y="-13.8" font-family="Times,serif" font-size="14.00" fill="#000000">Employee Account</text>
</g>
<!-- Alert&#45;&gt;EmployeeAccount -->
<g id="edge6" class="edge">
<title>Alert-&gt;EmployeeAccount</title>
<path fill="none" stroke="#000000" d="M226.6272,-88.4006C226.6272,-76.2949 226.6272,-60.2076 226.6272,-46.4674"/>
<polygon fill="#000000" stroke="#000000" points="230.1273,-46.072 226.6272,-36.072 223.1273,-46.0721 230.1273,-46.072"/>
<text text-anchor="middle" x="252.8653" y="-58.2" font-family="Times,serif" font-size="14.00" fill="#000000">related to</text>
</g>
<!-- ITSecuritySpecialist -->
<g id="node11" class="node">
<title>ITSecuritySpecialist</title>
<ellipse fill="none" stroke="#000000" cx="396.6272" cy="-284.4" rx="94.9148" ry="18"/>
<text text-anchor="middle" x="396.6272" y="-280.2" font-family="Times,serif" font-size="14.00" fill="#000000">IT Security Specialist</text>
</g>
<!-- ForwardedEmail&#45;&gt;ITSecuritySpecialist -->
<g id="edge8" class="edge">
<title>ForwardedEmail-&gt;ITSecuritySpecialist</title>
<path fill="none" stroke="#000000" d="M396.6272,-354.8006C396.6272,-342.6949 396.6272,-326.6076 396.6272,-312.8674"/>
<polygon fill="#000000" stroke="#000000" points="400.1273,-312.472 396.6272,-302.472 393.1273,-312.4721 400.1273,-312.472"/>
<text text-anchor="middle" x="429.082" y="-324.6" font-family="Times,serif" font-size="14.00" fill="#000000">received by</text>
</g>
<!-- NetworkScan -->
<g id="node9" class="node">
<title>NetworkScan</title>
<ellipse fill="none" stroke="#000000" cx="380.6272" cy="-195.6" rx="66.0115" ry="18"/>
<text text-anchor="middle" x="380.6272" y="-191.4" font-family="Times,serif" font-size="14.00" fill="#000000">Network Scan</text>
</g>
<!-- TeamNotification -->
<g id="node10" class="node">
<title>TeamNotification</title>
<ellipse fill="none" stroke="#000000" cx="546.6272" cy="-195.6" rx="82.1983" ry="18"/>
<text text-anchor="middle" x="546.6272" y="-191.4" font-family="Times,serif" font-size="14.00" fill="#000000">Team Notification</text>
</g>
<!-- ITSecuritySpecialist&#45;&gt;NetworkScan -->
<g id="edge9" class="edge">
<title>ITSecuritySpecialist-&gt;NetworkScan</title>
<path fill="none" stroke="#000000" d="M393.312,-266.0006C391.1092,-253.775 388.1747,-237.4887 385.683,-223.6599"/>
<polygon fill="#000000" stroke="#000000" points="389.1013,-222.8929 383.8834,-213.672 382.2122,-224.1342 389.1013,-222.8929"/>
<text text-anchor="middle" x="412.7906" y="-235.8" font-family="Times,serif" font-size="14.00" fill="#000000">initiates</text>
</g>
<!-- ITSecuritySpecialist&#45;&gt;TeamNotification -->
<g id="edge10" class="edge">
<title>ITSecuritySpecialist-&gt;TeamNotification</title>
<path fill="none" stroke="#000000" d="M425.9048,-267.0677C449.7001,-252.9808 483.4249,-233.0157 509.1834,-217.7667"/>
<polygon fill="#000000" stroke="#000000" points="511.1108,-220.6931 517.933,-212.587 507.5448,-214.6694 511.1108,-220.6931"/>
<text text-anchor="middle" x="500.1791" y="-235.8" font-family="Times,serif" font-size="14.00" fill="#000000">sends</text>
</g>
</g>
</svg>