<?xml version="1.0" encoding="UTF-8" standalone="no"?><!DOCTYPE svg PUBLIC "-//W3C//DTD SVG 1.1//EN" "http://www.w3.org/Graphics/SVG/1.1/DTD/svg11.dtd"><!-- Generated by graphviz version 2.40.1 (20161225.0304)
 --><!-- Title: PhishingIncident Pages: 1 --><svg xmlns="http://www.w3.org/2000/svg" xmlns:xlink="http://www.w3.org/1999/xlink" width="1175pt" height="310pt" viewBox="0.00 0.00 1174.71 310.40">
<g id="graph0" class="graph" transform="scale(1 1) rotate(0) translate(4 306.4)">
<title>PhishingIncident</title>
<polygon fill="#ffffff" stroke="transparent" points="-4,4 -4,-306.4 1170.7069,-306.4 1170.7069,4 -4,4"/>
<!-- Identity -->
<g id="node1" class="node">
<title>Identity</title>
<polygon fill="none" stroke="#000000" points="143.22,-124.8 -.0734,-124.8 -.0734,-88.8 143.22,-88.8 143.22,-124.8"/>
<text text-anchor="middle" x="71.5733" y="-102.6" font-family="Times,serif" font-size="14.00" fill="#000000">Identity: OurCompany</text>
</g>
<!-- EmailAddress -->
<g id="node2" class="node">
<title>EmailAddress</title>
<polygon fill="none" stroke="#000000" points="686.6547,-302.4 380.4919,-302.4 380.4919,-266.4 686.6547,-266.4 686.6547,-302.4"/>
<text text-anchor="middle" x="533.5733" y="-280.2" font-family="Times,serif" font-size="14.00" fill="#000000">Email Address: hr-dept@ourcompany-security.com</text>
</g>
<!-- EmailMessage -->
<g id="node3" class="node">
<title>EmailMessage</title>
<polygon fill="none" stroke="#000000" points="679.9728,-213.6 387.1738,-213.6 387.1738,-177.6 679.9728,-177.6 679.9728,-213.6"/>
<text text-anchor="middle" x="533.5733" y="-191.4" font-family="Times,serif" font-size="14.00" fill="#000000">Email Message: Urgent Benefits Package Update</text>
</g>
<!-- EmailAddress&#45;&gt;EmailMessage -->
<g id="edge1" class="edge">
<title>EmailAddress-&gt;EmailMessage</title>
<path fill="none" stroke="#000000" d="M533.5733,-266.0006C533.5733,-253.8949 533.5733,-237.8076 533.5733,-224.0674"/>
<polygon fill="#000000" stroke="#000000" points="537.0734,-223.672 533.5733,-213.672 530.0734,-223.6721 537.0734,-223.672"/>
<text text-anchor="middle" x="547.1792" y="-235.8" font-family="Times,serif" font-size="14.00" fill="#000000">from</text>
</g>
<!-- URL -->
<g id="node4" class="node">
<title>URL</title>
<polygon fill="none" stroke="#000000" points="493.3574,-124.8 273.7892,-124.8 273.7892,-88.8 493.3574,-88.8 493.3574,-124.8"/>
<text text-anchor="middle" x="383.5733" y="-102.6" font-family="Times,serif" font-size="14.00" fill="#000000">URL: http://phishing-link.com/login</text>
</g>
<!-- EmailMessage&#45;&gt;URL -->
<g id="edge2" class="edge">
<title>EmailMessage-&gt;URL</title>
<path fill="none" stroke="#000000" d="M502.8566,-177.4157C479.7265,-163.7227 447.8416,-144.8468 422.8562,-130.0555"/>
<polygon fill="#000000" stroke="#000000" points="424.3804,-126.8905 413.9923,-124.808 420.8144,-132.9141 424.3804,-126.8905"/>
<text text-anchor="middle" x="507.5414" y="-147" font-family="Times,serif" font-size="14.00" fill="#000000">contains link</text>
</g>
<!-- ObservableEmail -->
<g id="node6" class="node">
<title>ObservableEmail</title>
<polygon fill="none" stroke="#000000" points="681.5201,-124.8 511.6265,-124.8 511.6265,-88.8 681.5201,-88.8 681.5201,-124.8"/>
<text text-anchor="middle" x="596.5733" y="-102.6" font-family="Times,serif" font-size="14.00" fill="#000000">Observable: Email Address</text>
</g>
<!-- EmailMessage&#45;&gt;ObservableEmail -->
<g id="edge4" class="edge">
<title>EmailMessage-&gt;ObservableEmail</title>
<path fill="none" stroke="#000000" d="M546.6269,-177.2006C555.6406,-164.4956 567.7656,-147.4051 577.8118,-133.2448"/>
<polygon fill="#000000" stroke="#000000" points="580.8202,-135.0532 583.7519,-124.872 575.111,-131.0027 580.8202,-135.0532"/>
<text text-anchor="middle" x="593.5081" y="-147" font-family="Times,serif" font-size="14.00" fill="#000000">matches</text>
</g>
<!-- UserAccount -->
<g id="node5" class="node">
<title>UserAccount</title>
<polygon fill="none" stroke="#000000" points="278.6351,-36 140.5115,-36 140.5115,0 278.6351,0 278.6351,-36"/>
<text text-anchor="middle" x="209.5733" y="-13.8" font-family="Times,serif" font-size="14.00" fill="#000000">User Account: Taylor</text>
</g>
<!-- URL&#45;&gt;UserAccount -->
<g id="edge3" class="edge">
<title>URL-&gt;UserAccount</title>
<path fill="none" stroke="#000000" d="M310.5173,-88.7115C296.4791,-83.868 282.2216,-77.9407 269.5683,-70.8 256.5689,-63.464 243.9004,-52.9696 233.5802,-43.2667"/>
<polygon fill="#000000" stroke="#000000" points="235.7876,-40.5312 226.1794,-36.0666 230.9063,-45.5485 235.7876,-40.5312"/>
<text text-anchor="middle" x="323.5758" y="-58.2" font-family="Times,serif" font-size="14.00" fill="#000000">requests credentials</text>
</g>
<!-- ObservableURL -->
<g id="node7" class="node">
<title>ObservableURL</title>
<polygon fill="none" stroke="#000000" points="441.206,-36 325.9406,-36 325.9406,0 441.206,0 441.206,-36"/>
<text text-anchor="middle" x="383.5733" y="-13.8" font-family="Times,serif" font-size="14.00" fill="#000000">Observable: URL</text>
</g>
<!-- URL&#45;&gt;ObservableURL -->
<g id="edge5" class="edge">
<title>URL-&gt;ObservableURL</title>
<path fill="none" stroke="#000000" d="M383.5733,-88.4006C383.5733,-76.2949 383.5733,-60.2076 383.5733,-46.4674"/>
<polygon fill="#000000" stroke="#000000" points="387.0734,-46.072 383.5733,-36.072 380.0734,-46.0721 387.0734,-46.072"/>
<text text-anchor="middle" x="406.5081" y="-58.2" font-family="Times,serif" font-size="14.00" fill="#000000">matches</text>
</g>
<!-- Indicator -->
<g id="node8" class="node">
<title>Indicator</title>
<polygon fill="none" stroke="#000000" points="286.4745,-302.4 72.6721,-302.4 72.6721,-266.4 286.4745,-266.4 286.4745,-302.4"/>
<text text-anchor="middle" x="179.5733" y="-280.2" font-family="Times,serif" font-size="14.00" fill="#000000">Indicator: Phishing Email Indicator</text>
</g>
<!-- Incident -->
<g id="node9" class="node">
<title>Incident</title>
<polygon fill="none" stroke="#000000" points="307.8695,-213.6 51.2771,-213.6 51.2771,-177.6 307.8695,-177.6 307.8695,-213.6"/>
<text text-anchor="middle" x="179.5733" y="-191.4" font-family="Times,serif" font-size="14.00" fill="#000000">Incident: Phishing Attack on OurCompany</text>
</g>
<!-- Indicator&#45;&gt;Incident -->
<g id="edge6" class="edge">
<title>Indicator-&gt;Incident</title>
<path fill="none" stroke="#000000" d="M179.5733,-266.0006C179.5733,-253.8949 179.5733,-237.8076 179.5733,-224.0674"/>
<polygon fill="#000000" stroke="#000000" points="183.0734,-223.672 179.5733,-213.672 176.0734,-223.6721 183.0734,-223.672"/>
<text text-anchor="middle" x="204.4534" y="-235.8" font-family="Times,serif" font-size="14.00" fill="#000000">indicates</text>
</g>
<!-- Incident&#45;&gt;Identity -->
<g id="edge7" class="edge">
<title>Incident-&gt;Identity</title>
<path fill="none" stroke="#000000" d="M123.7565,-177.4923C114.2647,-172.7081 105.0578,-166.8074 97.5305,-159.6 90.2703,-152.6483 84.7562,-143.2392 80.7186,-134.2891"/>
<polygon fill="#000000" stroke="#000000" points="83.9094,-132.8439 76.9041,-124.8955 77.4237,-135.4776 83.9094,-132.8439"/>
<text text-anchor="middle" x="131.5947" y="-147" font-family="Times,serif" font-size="14.00" fill="#000000">attributed to</text>
</g>
<!-- Incident&#45;&gt;URL -->
<g id="edge8" class="edge">
<title>Incident-&gt;URL</title>
<path fill="none" stroke="#000000" d="M221.348,-177.4157C253.6328,-163.3623 298.459,-143.8498 332.8113,-128.8964"/>
<polygon fill="#000000" stroke="#000000" points="334.4315,-132.0084 342.2035,-124.808 331.6376,-125.5901 334.4315,-132.0084"/>
<text text-anchor="middle" x="311.6252" y="-147" font-family="Times,serif" font-size="14.00" fill="#000000">uses</text>
</g>
<!-- Incident&#45;&gt;UserAccount -->
<g id="edge9" class="edge">
<title>Incident-&gt;UserAccount</title>
<path fill="none" stroke="#000000" d="M180.0454,-177.3092C180.8522,-155.9203 183.0183,-119.5278 188.7941,-88.8 191.5016,-74.3957 195.9396,-58.7248 200.0204,-45.7966"/>
<polygon fill="#000000" stroke="#000000" points="203.4117,-46.6853 203.1766,-36.0931 196.755,-44.5201 203.4117,-46.6853"/>
<text text-anchor="middle" x="227.4629" y="-102.6" font-family="Times,serif" font-size="14.00" fill="#000000">affected asset</text>
</g>
<!-- RelationshipIndicates -->
<g id="node10" class="node">
<title>RelationshipIndicates</title>
<polygon fill="none" stroke="#000000" points="848.4969,-302.4 704.6497,-302.4 704.6497,-266.4 848.4969,-266.4 848.4969,-302.4"/>
<text text-anchor="middle" x="776.5733" y="-280.2" font-family="Times,serif" font-size="14.00" fill="#000000">Relationship: indicates</text>
</g>
<!-- RelationshipAttributedTo -->
<g id="node11" class="node">
<title>RelationshipAttributedTo</title>
<polygon fill="none" stroke="#000000" points="1030.4405,-302.4 866.7061,-302.4 866.7061,-266.4 1030.4405,-266.4 1030.4405,-302.4"/>
<text text-anchor="middle" x="948.5733" y="-280.2" font-family="Times,serif" font-size="14.00" fill="#000000">Relationship: attributed-to</text>
</g>
<!-- RelationshipUses -->
<g id="node12" class="node">
<title>RelationshipUses</title>
<polygon fill="none" stroke="#000000" points="1166.8408,-302.4 1048.3058,-302.4 1048.3058,-266.4 1166.8408,-266.4 1166.8408,-302.4"/>
<text text-anchor="middle" x="1107.5733" y="-280.2" font-family="Times,serif" font-size="14.00" fill="#000000">Relationship: uses</text>
</g>
</g>
</svg>